<svg width="166" height="39" fill="none" xmlns="http://www.w3.org/2000/svg"><path d="M18.008 11.72a4.477 4.477 0 00-1.98-1.908c-.84-.456-1.836-.684-2.988-.684-1.992 0-3.588.66-4.788 1.98-1.2 1.296-1.8 3.036-1.8 5.22 0 2.328.624 4.152 1.872 5.472 1.272 1.296 3.012 1.944 5.22 1.944 1.512 0 2.784-.384 3.816-1.152 1.056-.768 1.824-1.872 2.304-3.312h-7.812v-4.536h13.392v5.724c-.456 1.536-1.236 2.964-2.34 4.284-1.08 1.32-2.46 2.388-4.14 3.204-1.68.816-3.576 1.224-5.688 1.224-2.496 0-4.728-.54-6.696-1.62a11.954 11.954 0 01-4.572-4.572c-1.08-1.944-1.62-4.164-1.62-6.66 0-2.496.54-4.716 1.62-6.66C2.912 7.7 4.436 6.176 6.38 5.096c1.944-1.104 4.164-1.656 6.66-1.656 3.024 0 5.568.732 7.632 2.196 2.088 1.464 3.468 3.492 4.14 6.084h-6.804zm19.79 17.568c-1.968 0-3.744-.42-5.328-1.26-1.56-.84-2.796-2.04-3.708-3.6-.888-1.56-1.332-3.384-1.332-5.472 0-2.064.456-3.876 1.368-5.436.912-1.584 2.16-2.796 3.744-3.636 1.584-.84 3.36-1.26 5.328-1.26 1.968 0 3.744.42 5.328 1.26 1.584.84 2.832 2.052 3.744 3.636.912 1.56 1.368 3.372 1.368 5.436s-.468 3.888-1.404 5.472a9.258 9.258 0 01-3.78 3.6c-1.584.84-3.36 1.26-5.328 1.26zm0-5.328c1.176 0 2.172-.432 2.988-1.296.84-.864 1.26-2.1 1.26-3.708s-.408-2.844-1.224-3.708c-.792-.864-1.776-1.296-2.952-1.296-1.2 0-2.196.432-2.988 1.296-.792.84-1.188 2.076-1.188 3.708 0 1.608.384 2.844 1.152 3.708.792.864 1.776 1.296 2.952 1.296zM69.756 3.728V8.66H63.06V29h-6.156V8.66h-6.696V3.728h19.548zM79 12.26c.72-1.104 1.62-1.968 2.7-2.592 1.08-.648 2.28-.972 3.6-.972v6.516h-1.69c-1.536 0-2.688.336-3.456 1.008-.768.648-1.152 1.8-1.152 3.456V29h-6.156V8.912h6.156v3.348zm12.34-5.436c-1.08 0-1.968-.312-2.664-.936a3.174 3.174 0 01-1.008-2.376c0-.96.336-1.752 1.008-2.376.696-.648 1.584-.972 2.664-.972 1.056 0 1.92.324 2.592.972.696.624 1.044 1.416 1.044 2.376 0 .936-.348 1.728-1.044 2.376-.672.624-1.536.936-2.592.936zm3.06 2.088V29h-6.156V8.912H94.4zm23.397 9.72c0 .576-.036 1.176-.108 1.8h-13.932c.096 1.248.492 2.208 1.188 2.88.72.648 1.596.972 2.628.972 1.536 0 2.604-.648 3.204-1.944h6.552a8.874 8.874 0 01-1.836 3.564c-.864 1.056-1.956 1.884-3.276 2.484-1.32.6-2.796.9-4.428.9-1.968 0-3.72-.42-5.256-1.26-1.536-.84-2.736-2.04-3.6-3.6-.864-1.56-1.296-3.384-1.296-5.472 0-2.088.42-3.912 1.26-5.472.864-1.56 2.064-2.76 3.6-3.6 1.536-.84 3.3-1.26 5.292-1.26 1.944 0 3.672.408 5.184 1.224a8.672 8.672 0 013.528 3.492c.864 1.512 1.296 3.276 1.296 5.292zm-6.3-1.62c0-1.056-.36-1.896-1.08-2.52-.72-.624-1.62-.936-2.7-.936-1.032 0-1.908.3-2.628.9-.696.6-1.128 1.452-1.296 2.556h7.704zm18.692 12.276c-1.968 0-3.744-.42-5.328-1.26-1.56-.84-2.796-2.04-3.708-3.6-.888-1.56-1.332-3.384-1.332-5.472 0-2.064.456-3.876 1.367-5.436.913-1.584 2.161-2.796 3.745-3.636 1.584-.84 3.36-1.26 5.328-1.26 1.968 0 3.744.42 5.328 1.26 1.584.84 2.832 2.052 3.744 3.636.912 1.56 1.368 3.372 1.368 5.436s-.468 3.888-1.404 5.472a9.258 9.258 0 01-3.78 3.6c-1.584.84-3.36 1.26-5.328 1.26zm0-5.328c1.176 0 2.172-.432 2.988-1.296.84-.864 1.26-2.1 1.26-3.708s-.408-2.844-1.224-3.708c-.792-.864-1.776-1.296-2.952-1.296-1.2 0-2.196.432-2.988 1.296-.792.84-1.188 2.076-1.188 3.708 0 1.608.384 2.844 1.152 3.708.792.864 1.776 1.296 2.952 1.296zm19.933-12.204c.6-.936 1.428-1.692 2.484-2.268 1.056-.576 2.292-.864 3.708-.864 1.656 0 3.156.42 4.5 1.26 1.344.84 2.4 2.04 3.168 3.6.792 1.56 1.188 3.372 1.188 5.436s-.396 3.888-1.188 5.472c-.768 1.56-1.824 2.772-3.168 3.636-1.344.84-2.844 1.26-4.5 1.26-1.392 0-2.628-.288-3.708-.864-1.056-.576-1.884-1.32-2.484-2.232v12.384h-6.156V8.912h6.156v2.844zm8.784 7.164c0-1.536-.432-2.736-1.296-3.6-.84-.888-1.884-1.332-3.132-1.332-1.224 0-2.268.444-3.132 1.332-.84.888-1.26 2.1-1.26 3.636s.42 2.748 1.26 3.636c.864.888 1.908 1.332 3.132 1.332 1.224 0 2.268-.444 3.132-1.332.864-.912 1.296-2.136 1.296-3.672z" fill="#000"/></svg>